<svg id="logo_apple" xmlns="http://www.w3.org/2000/svg" width="23.323" height="29.022" viewBox="0 0 23.323 29.022">
  <path id="Fill_2" data-name="Fill 2" d="M19.48,8.433a6.6,6.6,0,0,1,3.1-5.533A6.644,6.644,0,0,0,17.329.024c-2.21-.235-4.354,1.339-5.48,1.339C10.7,1.363,8.966.047,7.1.085A6.985,6.985,0,0,0,1.209,3.721C-1.337,8.184.562,14.742,3,18.35c1.22,1.768,2.646,3.739,4.513,3.67,1.826-.075,2.508-1.179,4.712-1.179,2.183,0,2.824,1.179,4.727,1.133,1.96-.03,3.194-1.774,4.371-3.557a14.65,14.65,0,0,0,2-4.122A6.362,6.362,0,0,1,19.48,8.433" transform="translate(0 7.001)" fill="#fff"/>
  <path id="Fill_3" data-name="Fill 3" d="M4.294,4.652A6.544,6.544,0,0,0,5.762,0,6.5,6.5,0,0,0,1.539,2.211,6.225,6.225,0,0,0,.033,6.691a5.369,5.369,0,0,0,4.261-2.04" transform="translate(11.59)" fill="#fff"/>
</svg>
